<?xml version="1.0" encoding="UTF-8"?>
<!DOCTYPE svg PUBLIC "-//W3C//DTD SVG 1.1//EN" "http://www.w3.org/Graphics/SVG/1.1/DTD/svg11.dtd">
<svg xmlns="http://www.w3.org/2000/svg" version="1.1" width="500px" height="500px" style="shape-rendering:geometricPrecision; text-rendering:geometricPrecision; image-rendering:optimizeQuality; fill-rule:evenodd; clip-rule:evenodd" xmlns:xlink="http://www.w3.org/1999/xlink">
<g><path style="opacity:1" fill="#ebebe4" d="M -0.5,-0.5 C 166.167,-0.5 332.833,-0.5 499.5,-0.5C 499.5,166.167 499.5,332.833 499.5,499.5C 332.833,499.5 166.167,499.5 -0.5,499.5C -0.5,332.833 -0.5,166.167 -0.5,-0.5 Z"/></g>
<g><path style="opacity:1" fill="#1a1a19" d="M 318.5,107.5 C 318.5,108.167 318.167,108.5 317.5,108.5C 289.882,64.8717 250.215,46.7051 198.5,54C 167.707,61.3153 143.707,78.1486 126.5,104.5C 125.833,104.5 125.167,104.5 124.5,104.5C 145.827,69.904 176.994,51.5706 218,49.5C 262.757,49.8377 296.257,69.171 318.5,107.5 Z"/></g>
<g><path style="opacity:1" fill="#060605" d="M 318.5,107.5 C 325.229,118.169 329.729,129.835 332,142.5C 333.372,150.125 333.706,157.792 333,165.5C 329.243,178.965 320.41,184.798 306.5,183C 291.94,175.987 288.106,165.153 295,150.5C 307.061,138.321 318.728,138.654 330,151.5C 329.185,136.218 325.018,121.885 317.5,108.5C 318.167,108.5 318.5,108.167 318.5,107.5 Z"/></g>
<g><path style="opacity:1" fill="#040404" d="M 124.5,104.5 C 125.167,104.5 125.833,104.5 126.5,104.5C 110.489,131.227 106.656,159.56 115,189.5C 124.74,181.366 135.907,177.2 148.5,177C 142.625,180.881 138.125,186.048 135,192.5C 130.453,202.017 128.453,212.017 129,222.5C 151.68,254.759 182.846,271.092 222.5,271.5C 222.333,247.498 222.5,223.498 223,199.5C 227.439,189.051 234.939,182.217 245.5,179C 241.874,181.251 240.707,184.418 242,188.5C 244.95,193.118 248.284,197.452 252,201.5C 252.5,223.497 252.667,245.497 252.5,267.5C 270.658,263.447 288.658,258.781 306.5,253.5C 304.283,220.944 317.283,196.777 345.5,181C 351.974,178.372 358.641,177.039 365.5,177C 360.448,179.597 356.614,183.43 354,188.5C 345.54,206.302 342.707,224.969 345.5,244.5C 373.968,238.723 397.134,247.057 415,269.5C 425.964,289.642 426.297,309.976 416,330.5C 414.054,333.42 411.887,336.087 409.5,338.5C 409.5,337.833 409.167,337.5 408.5,337.5C 420.477,322.661 424.144,305.994 419.5,287.5C 404.673,308.512 384.34,317.678 358.5,315C 329.416,306.579 312.249,287.413 307,257.5C 306.275,256.941 305.442,256.608 304.5,256.5C 287.354,261.411 270.187,266.077 253,270.5C 252.333,282.833 252.333,295.167 253,307.5C 254.031,310.539 255.865,313.039 258.5,315C 244.5,315.667 230.5,315.667 216.5,315C 219.187,313.125 221.021,310.625 222,307.5C 222.5,296.172 222.667,284.838 222.5,273.5C 182.912,273.29 151.412,257.29 128,225.5C 126.728,245.081 131.395,263.081 142,279.5C 160.729,301.54 181.063,303.207 203,284.5C 191.304,305.082 173.304,315.415 149,315.5C 117.98,310.82 98.6462,293.153 91,262.5C 85.0981,234.582 92.2648,210.749 112.5,191C 104.512,160.391 108.512,131.558 124.5,104.5 Z"/></g>
<g><path style="opacity:1" fill="#040404" d="M 269.5,179.5 C 280.785,181.558 289.285,187.891 295,198.5C 296.995,213.504 290.495,220.337 275.5,219C 267.189,215.093 264.023,208.593 266,199.5C 267.608,196.228 269.608,193.228 272,190.5C 274.572,185.889 273.739,182.222 269.5,179.5 Z"/></g>
<g><path style="opacity:1" fill="#040404" d="M 162.5,178.5 C 163.601,177.402 164.934,177.235 166.5,178C 183.914,182.754 196.414,193.254 204,209.5C 205.342,227.825 196.842,236.658 178.5,236C 165.698,231.236 160.531,222.069 163,208.5C 165.753,203.992 168.753,199.659 172,195.5C 175.896,185.894 172.729,180.227 162.5,178.5 Z"/></g>
<g><path style="opacity:1" fill="#040404" d="M 379.5,178.5 C 380.601,177.402 381.934,177.235 383.5,178C 400.914,182.754 413.414,193.254 421,209.5C 422.342,227.825 413.842,236.658 395.5,236C 382.698,231.236 377.531,222.069 380,208.5C 382.753,203.992 385.753,199.659 389,195.5C 392.896,185.894 389.729,180.227 379.5,178.5 Z"/></g>
<g><path style="opacity:1" fill="#565654" d="M 267.5,255.5 C 268.833,249.167 268.833,242.833 267.5,236.5C 268.09,235.234 268.59,233.901 269,232.5C 269.667,241.167 269.667,249.833 269,258.5C 268.487,257.473 267.987,256.473 267.5,255.5 Z"/></g>
<g><path style="opacity:1" fill="#0d0d0d" d="M 267.5,236.5 C 268.833,242.833 268.833,249.167 267.5,255.5C 264.663,250.403 260.33,247.236 254.5,246C 260.166,244.479 264.5,241.313 267.5,236.5 Z"/></g>
<g><path style="opacity:1" fill="#e9e9e2" d="M 347.5,246.5 C 367.191,243.189 385.191,247.022 401.5,258C 410.291,265.443 416.124,274.61 419,285.5C 397.116,303.112 377.116,301.112 359,279.5C 351.838,269.51 348.005,258.51 347.5,246.5 Z"/></g>
<g><path style="opacity:1" fill="#9b9b96" d="M 200.5,329.5 C 199.757,331.909 199.091,334.909 198.5,338.5C 198.817,335.428 198.484,332.428 197.5,329.5C 196.833,330.167 196.167,330.833 195.5,331.5C 194.269,330.349 194.269,329.183 195.5,328C 198.5,327.333 201.5,327.333 204.5,328C 205.731,329.183 205.731,330.349 204.5,331.5C 203.476,330.147 202.143,329.48 200.5,329.5 Z"/></g>
<g><path style="opacity:1" fill="#0c0c0b" d="M 166.5,329.5 C 166.216,332.777 166.549,335.943 167.5,339C 166.251,339.74 165.251,339.573 164.5,338.5C 165.091,334.909 165.757,331.909 166.5,329.5 Z"/></g>
<g><path style="opacity:1" fill="#0c0c0c" d="M 200.5,329.5 C 200.216,332.777 200.549,335.943 201.5,339C 200.251,339.74 199.251,339.573 198.5,338.5C 199.091,334.909 199.757,331.909 200.5,329.5 Z"/></g>
<g><path style="opacity:1" fill="#353534" d="M 269.5,333.5 C 269.193,331.554 269.193,329.887 269.5,328.5C 272.148,330.206 272.148,331.872 269.5,333.5 Z"/></g>
<g><path style="opacity:1" fill="#8b8b86" d="M 166.5,329.5 C 165.757,331.909 165.091,334.909 164.5,338.5C 164.5,337.167 164.5,335.833 164.5,334.5C 162.833,334.5 161.167,334.5 159.5,334.5C 159.5,334.167 159.5,333.833 159.5,333.5C 161.167,333.5 162.833,333.5 164.5,333.5C 164.5,331.5 164.5,329.5 164.5,327.5C 165.675,327.281 166.675,327.614 167.5,328.5C 167.376,329.107 167.043,329.44 166.5,329.5 Z"/></g>
<g><path style="opacity:1" fill="#82827f" d="M 159.5,329.5 C 158.757,331.909 158.091,334.909 157.5,338.5C 157.751,335.091 157.417,331.758 156.5,328.5C 157.833,327.167 159.167,327.167 160.5,328.5C 160.376,329.107 160.043,329.44 159.5,329.5 Z"/></g>
<g><path style="opacity:1" fill="#81817d" d="M 228.5,329.5 C 227.757,331.909 227.091,334.909 226.5,338.5C 226.751,335.091 226.417,331.758 225.5,328.5C 228.086,327.52 230.753,327.187 233.5,327.5C 233.649,328.552 233.483,329.552 233,330.5C 231.644,329.62 230.144,329.286 228.5,329.5 Z"/></g>
<g><path style="opacity:1" fill="#20201f" d="M 228.5,329.5 C 228.5,330.833 228.5,332.167 228.5,333.5C 232.5,333.833 232.5,334.167 228.5,334.5C 228.785,336.288 228.452,337.955 227.5,339.5C 226.893,339.376 226.56,339.043 226.5,338.5C 227.091,334.909 227.757,331.909 228.5,329.5 Z"/></g>
<g><path style="opacity:1" fill="#3f3f3d" d="M 315.5,332.5 C 315.312,330.897 315.812,329.563 317,328.5C 318.706,332.079 320.539,335.579 322.5,339C 321.167,339.667 319.833,339.667 318.5,339C 318.957,338.586 319.291,338.086 319.5,337.5C 317.955,336.548 316.288,336.215 314.5,336.5C 314.719,337.675 314.386,338.675 313.5,339.5C 312.905,336.934 313.572,334.601 315.5,332.5 Z"/></g>
<g><path style="opacity:1" fill="#82827f" d="M 333.5,329.5 C 332.757,331.909 332.091,334.909 331.5,338.5C 331.751,335.091 331.417,331.758 330.5,328.5C 331.833,327.167 333.167,327.167 334.5,328.5C 334.376,329.107 334.043,329.44 333.5,329.5 Z"/></g>
<g><path style="opacity:1" fill="#3e3e3c" d="M 139.5,337.5 C 137.032,335.158 136.866,332.492 139,329.5C 141.594,327.195 144.427,326.862 147.5,328.5C 147.649,329.552 147.483,330.552 147,331.5C 144.925,329.352 142.592,329.018 140,330.5C 139.503,332.81 139.337,335.143 139.5,337.5 Z"/></g>
<g><path style="opacity:1" fill="#3e3e3c" d="M 180.5,328.5 C 183.088,331.489 185.088,334.989 186.5,339C 185.552,339.483 184.552,339.649 183.5,339.5C 183.5,338.5 183.5,337.5 183.5,336.5C 182.127,336.343 180.793,336.51 179.5,337C 178.167,337.667 178.167,338.333 179.5,339C 178.5,339.667 177.5,339.667 176.5,339C 177.46,337.581 178.293,336.081 179,334.5C 180.011,335.337 181.178,335.67 182.5,335.5C 182.688,333.897 182.188,332.563 181,331.5C 180.444,333.595 179.944,333.762 179.5,332C 179.989,330.862 180.322,329.695 180.5,328.5 Z"/></g>
<g><path style="opacity:1" fill="#30302e" d="M 244.5,337.5 C 243.053,336.866 242.387,335.699 242.5,334C 242.6,331.63 243.6,329.797 245.5,328.5C 246.505,329.11 246.338,329.776 245,330.5C 244.503,332.81 244.337,335.143 244.5,337.5 Z"/></g>
<g><path style="opacity:1" fill="#3e3e3c" d="M 295.5,337.5 C 293.032,335.158 292.866,332.492 295,329.5C 297.594,327.195 300.427,326.862 303.5,328.5C 303.649,329.552 303.483,330.552 303,331.5C 300.925,329.352 298.592,329.018 296,330.5C 295.503,332.81 295.337,335.143 295.5,337.5 Z"/></g>
<g><path style="opacity:1" fill="#4f4f4d" d="M 356.5,334.5 C 356.617,336.484 355.95,338.15 354.5,339.5C 353.338,337.176 352.171,334.842 351,332.5C 350.814,334.9 350.314,337.234 349.5,339.5C 348.78,335.838 349.113,332.171 350.5,328.5C 351.743,331.319 353.243,333.986 355,336.5C 355.278,335.584 355.778,334.918 356.5,334.5 Z"/></g>
<g><path style="opacity:1" fill="#1a1a19" d="M 159.5,329.5 C 159.5,330.833 159.5,332.167 159.5,333.5C 159.5,333.833 159.5,334.167 159.5,334.5C 159.286,336.144 159.62,337.644 160.5,339C 159.251,339.74 158.251,339.573 157.5,338.5C 158.091,334.909 158.757,331.909 159.5,329.5 Z"/></g>
<g><path style="opacity:1" fill="#c1c1bb" d="M 315.5,332.5 C 317.108,331.462 318.108,332.129 318.5,334.5C 317.675,335.386 316.675,335.719 315.5,335.5C 315.5,334.5 315.5,333.5 315.5,332.5 Z"/></g>
<g><path style="opacity:1" fill="#50504e" d="M 356.5,334.5 C 356.447,331.939 357.447,329.939 359.5,328.5C 360.2,332.041 360.867,335.541 361.5,339C 360.552,339.483 359.552,339.649 358.5,339.5C 358.663,337.143 358.497,334.81 358,332.5C 357.722,333.416 357.222,334.082 356.5,334.5 Z"/></g>
<g><path style="opacity:1" fill="#272726" d="M 269.5,333.5 C 269.393,335.903 270.393,337.736 272.5,339C 272.167,339.167 271.833,339.333 271.5,339.5C 269.605,338.027 267.939,336.36 266.5,334.5C 265.253,336.006 265.253,337.506 266.5,339C 265.5,339.667 264.5,339.667 263.5,339C 264.133,335.541 264.8,332.041 265.5,328.5C 265.807,329.887 265.807,331.554 265.5,333.5C 266.833,333.5 268.167,333.5 269.5,333.5 Z"/></g>
<g><path style="opacity:1" fill="#494947" d="M 244.5,337.5 C 251.082,339.716 253.249,337.382 251,330.5C 249.79,327.801 250.457,327.801 253,330.5C 254.455,338.909 251.622,341.243 244.5,337.5 Z"/></g>
<g><path style="opacity:1" fill="#1a1a1a" d="M 408.5,337.5 C 409.167,337.5 409.5,337.833 409.5,338.5C 398.11,351.873 383.443,358.54 365.5,358.5C 365.5,357.5 365.5,356.5 365.5,355.5C 382.507,355.829 396.84,349.829 408.5,337.5 Z"/></g>
<g><path style="opacity:1" fill="#52524f" d="M 139.5,337.5 C 142.177,338.644 144.843,338.81 147.5,338C 146.228,339.046 144.728,339.546 143,339.5C 141.319,339.392 140.152,338.725 139.5,337.5 Z"/></g>
<g><path style="opacity:1" fill="#52524f" d="M 295.5,337.5 C 298.177,338.644 300.843,338.81 303.5,338C 302.228,339.046 300.728,339.546 299,339.5C 297.319,339.392 296.152,338.725 295.5,337.5 Z"/></g>
<g><path style="opacity:1" fill="#40403e" d="M 333.5,329.5 C 333.5,332.5 333.5,335.5 333.5,338.5C 335.722,338.822 337.556,338.155 339,336.5C 339.483,337.448 339.649,338.448 339.5,339.5C 336.615,339.806 333.948,339.473 331.5,338.5C 332.091,334.909 332.757,331.909 333.5,329.5 Z"/></g>
</svg>
